<svg xmlns="http://www.w3.org/2000/svg" width="49.084" height="62.314" viewBox="0 0 49.084 62.314">
  <g id="Group_40" data-name="Group 40" transform="translate(-285.949 -902.06)">
    <rect id="Rectangle_378" data-name="Rectangle 378" width="25.665" height="6.91" rx="3.455" transform="translate(308.329 913.764) rotate(30)" fill="#bb5dff"/>
    <path id="Rectangle_383" data-name="Rectangle 383" d="M15.794,0h1.974a0,0,0,0,1,0,0V15.794a0,0,0,0,1,0,0H0a0,0,0,0,1,0,0v0A15.794,15.794,0,0,1,15.794,0Z" transform="translate(319.645 902.06) rotate(30)" fill="#a466cf"/>
    <path id="Subtraction_6" data-name="Subtraction 6" d="M13.818,36.143v0L0,13.441,3.973,0H23.662l3.974,13.437L13.819,36.142Zm.494-30.221a5.429,5.429,0,1,0,5.429,5.429A5.436,5.436,0,0,0,14.312,5.923Z" transform="translate(304.021 919.255) rotate(30)" fill="#dcabff"/>
  </g>
</svg>
