<svg xmlns="http://www.w3.org/2000/svg" width="213" height="56" viewBox="0 0 213 56">
  <g id="Group_11" data-name="Group 11" transform="translate(-1554 -2222)">
    <rect id="Rectangle_45" data-name="Rectangle 45" width="179" height="52" rx="26" transform="translate(1733 2278) rotate(180)" fill="#dcabff"/>
    <path id="Rectangle_46" data-name="Rectangle 46" d="M26,0h0a0,0,0,0,1,0,0V70A26,26,0,0,1,0,96H0a0,0,0,0,1,0,0V26A26,26,0,0,1,26,0Z" transform="translate(1671 2278) rotate(-90)" fill="#732ca4"/>
    <path id="Rectangle_47" data-name="Rectangle 47" d="M0,0H0A26,26,0,0,1,26,26V96a0,0,0,0,1,0,0h0A26,26,0,0,1,0,70V0A0,0,0,0,1,0,0Z" transform="translate(1671 2252) rotate(-90)" fill="#732ca4"/>
    <text id="بریم_بالا" data-name="بریم بالا" transform="translate(1662 2257)" fill="#712ba2" font-size="30" font-family="IRANSans-Light, IRANSans" font-weight="300"><tspan x="-86.035" y="0">بریم بالا</tspan></text>
    <text id="برو" transform="translate(1721 2255)" fill="#fff" font-size="30" font-family="IRANSans-Light, IRANSans" font-weight="300"><tspan x="-33.013" y="0">برو</tspan></text>
  </g>
</svg>
