<svg xmlns="http://www.w3.org/2000/svg" width="173" height="27" viewBox="0 0 173 27">
  <g id="Group_21" data-name="Group 21" transform="translate(-694 -812)">
    <path id="Polygon_1" data-name="Polygon 1" d="M14.5,0l3.988,9.552L29,10.313l-8.048,6.664L23.461,27,14.5,21.566,5.539,27l2.51-10.023L0,10.313l10.512-.761Z" transform="translate(838 812)" fill="#722ba2"/>
    <path id="Polygon_2" data-name="Polygon 2" d="M14.5,0l3.988,9.552L29,10.313l-8.048,6.664L23.461,27,14.5,21.566,5.539,27l2.51-10.023L0,10.313l10.512-.761Z" transform="translate(802 812)" fill="#722ba2"/>
    <path id="Polygon_3" data-name="Polygon 3" d="M14.5,0l3.988,9.552L29,10.313l-8.048,6.664L23.461,27,14.5,21.566,5.539,27l2.51-10.023L0,10.313l10.512-.761Z" transform="translate(766 812)" fill="#722ba2"/>
    <path id="Polygon_4" data-name="Polygon 4" d="M14.5,0l3.988,9.552L29,10.313l-8.048,6.664L23.461,27,14.5,21.566,5.539,27l2.51-10.023L0,10.313l10.512-.761Z" transform="translate(730 812)" fill="#722ba2"/>
    <path id="Polygon_5" data-name="Polygon 5" d="M14.5,0l3.988,9.552L29,10.313l-8.048,6.664L23.461,27,14.5,21.566,5.539,27l2.51-10.023L0,10.313l10.512-.761Z" transform="translate(694 812)" fill="#722ba2"/>
  </g>
</svg>
