<svg id="Layer_2" data-name="Layer 2" xmlns="http://www.w3.org/2000/svg" width="44.001" height="44.001" viewBox="0 0 44.001 44.001">
  <g id="Layer_1" data-name="Layer 1" transform="translate(0 0)">
    <path id="Path_17" data-name="Path 17" d="M64.49,63.058a8.8,8.8,0,0,0-9.7-4.26,8.532,8.532,0,0,0-3.763,1.953,8.781,8.781,0,0,0-14,9.773A10.927,10.927,0,0,0,40.8,75.113l10.278,8.164L54.4,80.6c1.635-1.325,3.3-2.675,4.97-4.03.335-.272.675-.538,1.014-.811a29.057,29.057,0,0,0,2.71-2.306,8.637,8.637,0,0,0,1.4-10.39Zm-4.416,7.383a25.91,25.91,0,0,1-2.325,1.964c-.355.276-.72.562-1.081.856-1.663,1.353-3.331,2.7-4.964,4.024l-.657.531-7.6-6.039a7.132,7.132,0,0,1-2.434-2.761A4.542,4.542,0,0,1,43.1,63.356a4.408,4.408,0,0,1,2.1-.529,4.627,4.627,0,0,1,3.722,1.9c.085.114.168.229.262.353l1.986,2.69,1.667-2.59a4.684,4.684,0,0,1,2.937-2.213A4.516,4.516,0,0,1,60.8,65.2,4.371,4.371,0,0,1,60.075,70.442Z" transform="translate(-29.04 -46.673)" fill="#732ca4"/>
    <path id="Path_18" data-name="Path 18" d="M22,0A22,22,0,1,0,44,22,22,22,0,0,0,22,0Zm0,39.741A17.741,17.741,0,1,1,39.741,22,17.741,17.741,0,0,1,22,39.741Z" transform="translate(0 0)" fill="#732ca4"/>
  </g>
</svg>
