<svg id="Layer_2" data-name="Layer 2" xmlns="http://www.w3.org/2000/svg" width="72.043" height="80.46" viewBox="0 0 72.043 80.46">
  <g id="Layer_1" data-name="Layer 1" transform="translate(0 0)">
    <path id="Path_8" data-name="Path 8" d="M72.04,36.056A36.021,36.021,0,1,0,32.518,71.924v5.1a3.487,3.487,0,0,0,6.974,0V71.908A36.071,36.071,0,0,0,72.04,36.056ZM36.019,45.687a9.5,9.5,0,1,1,9.5-9.5,9.5,9.5,0,0,1-9.5,9.5Zm3.5,19.206V52.29a16.47,16.47,0,1,0-6.974,0v12.6a29.047,29.047,0,1,1,6.974,0Z" transform="translate(0.004 -0.052)" fill="#fff"/>
  </g>
</svg>
