<svg id="Layer_2" data-name="Layer 2" xmlns="http://www.w3.org/2000/svg" width="116" height="116" viewBox="0 0 116 116">
  <g id="Layer_1" data-name="Layer 1" transform="translate(0 0)">
    <path id="Path_9" data-name="Path 9" d="M58,0a58,58,0,1,0,58,58A58,58,0,0,0,58,0Zm0,104.77A46.77,46.77,0,1,1,104.77,58,46.77,46.77,0,0,1,58,104.77Z" transform="translate(0 0)" fill="#732ca4"/>
    <path id="Path_10" data-name="Path 10" d="M111.906,63.8A26.519,26.519,0,1,0,69.2,84.782a26.257,26.257,0,0,0-9.979,20.6,5.615,5.615,0,1,0,11.23,0,15.064,15.064,0,1,1,30.128,0,5.615,5.615,0,1,0,11.23,0,26.27,26.27,0,0,0-10.1-20.7A26.476,26.476,0,0,0,111.906,63.8ZM85.387,48.509A15.289,15.289,0,1,1,70.1,63.8,15.289,15.289,0,0,1,85.387,48.509Z" transform="translate(-27.387 -17.333)" fill="#732ca4"/>
  </g>
</svg>
