<svg id="Layer_2" data-name="Layer 2" xmlns="http://www.w3.org/2000/svg" width="72.026" height="99" viewBox="0 0 72.026 99">
  <g id="Layer_1" data-name="Layer 1" transform="translate(0)">
    <path id="Path_11" data-name="Path 11" d="M72.074,54.623A36.064,36.064,0,0,0,52.479,22.56V16.33a16.33,16.33,0,1,0-32.66,0v6.154a36.008,36.008,0,0,0,.242,64.4A6.483,6.483,0,1,0,29.281,90,36.1,36.1,0,0,0,43,89.97a6.493,6.493,0,1,0,9.15-3.129A36.054,36.054,0,0,0,72.074,54.623ZM26.777,16.33a9.356,9.356,0,1,1,18.711,0v3.527a36.044,36.044,0,0,0-18.711-.04Zm9.276,67.339A29.037,29.037,0,0,1,19.8,30.554v9.831a6.489,6.489,0,1,0,6.974,0V27.1a29.053,29.053,0,0,1,18.711.053V40.395a6.49,6.49,0,1,0,6.974,0V30.671a29.037,29.037,0,0,1-16.41,53Z" transform="translate(-0.048)" fill="#732ca4"/>
  </g>
</svg>
