<svg id="Layer_2" data-name="Layer 2" xmlns="http://www.w3.org/2000/svg" width="72.042" height="72.042" viewBox="0 0 72.042 72.042">
  <g id="Layer_1" data-name="Layer 1" transform="translate(0 0)">
    <path id="Path_6" data-name="Path 6" d="M82.374,65.932a14.414,14.414,0,0,0-15.882-6.974,13.969,13.969,0,0,0-6.161,3.2,14.377,14.377,0,0,0-22.916,16c1.322,3.457,3.879,5.689,6.177,7.512L60.421,99.037l5.423-4.391c2.677-2.169,5.41-4.381,8.137-6.6.548-.445,1.106-.88,1.661-1.328a47.571,47.571,0,0,0,4.437-3.776A14.141,14.141,0,0,0,82.374,65.932Zm-7.23,12.089a42.422,42.422,0,0,1-3.806,3.215c-.581.452-1.179.92-1.77,1.4-2.723,2.215-5.453,4.424-8.127,6.589l-1.076.87L47.927,80.21c-1.707-1.358-3.3-2.727-3.985-4.52a7.436,7.436,0,0,1,3.4-9.269,7.217,7.217,0,0,1,3.437-.867,7.576,7.576,0,0,1,6.094,3.109c.139.186.276.375.428.578l3.251,4.4,2.73-4.241A7.67,7.67,0,0,1,68.1,65.779a7.4,7.4,0,0,1,8.23,3.653A7.157,7.157,0,0,1,75.144,78.021Z" transform="translate(-24.33 -39.104)" fill="#732ca4"/>
    <path id="Path_7" data-name="Path 7" d="M36.021,0A36.021,36.021,0,1,0,72.042,36.021,36.021,36.021,0,0,0,36.021,0Zm0,65.068A29.047,29.047,0,1,1,65.068,36.021,29.047,29.047,0,0,1,36.021,65.068Z" transform="translate(0 0)" fill="#732ca4"/>
  </g>
</svg>
