<svg id="Layer_2" data-name="Layer 2" xmlns="http://www.w3.org/2000/svg" width="72.042" height="72.042" viewBox="0 0 72.042 72.042">
  <g id="Layer_1" data-name="Layer 1" transform="translate(0 0)">
    <path id="Path_9" data-name="Path 9" d="M36.021,0A36.021,36.021,0,1,0,72.042,36.021,36.021,36.021,0,0,0,36.021,0Zm0,65.068A29.047,29.047,0,1,1,65.068,36.021,29.047,29.047,0,0,1,36.021,65.068Z" transform="translate(0 0)" fill="#fff"/>
    <path id="Path_10" data-name="Path 10" d="M91.807,53.74A16.47,16.47,0,1,0,65.284,66.772a16.307,16.307,0,0,0-6.2,12.793,3.487,3.487,0,1,0,6.974,0,9.356,9.356,0,1,1,18.711,0,3.487,3.487,0,1,0,6.974,0,16.315,16.315,0,0,0-6.27-12.858A16.443,16.443,0,0,0,91.807,53.74Zm-16.47-9.5a9.5,9.5,0,1,1-9.5,9.5,9.5,9.5,0,0,1,9.5-9.5Z" transform="translate(-39.316 -24.882)" fill="#fff"/>
  </g>
</svg>
