<svg xmlns="http://www.w3.org/2000/svg" width="33.288" height="32.972" viewBox="0 0 33.288 32.972">
  <path id="Path_20" data-name="Path 20" d="M16.624,0A16.638,16.638,0,0,1,32.505,11.531a15.966,15.966,0,0,1,.749,5.728A16.528,16.528,0,0,1,20.22,32.582,16.693,16.693,0,0,1,.614,20.98,16.447,16.447,0,0,1,11.669.745,17.139,17.139,0,0,1,16.624,0ZM7.094,9.1a4.778,4.778,0,1,0,4.769-4.729A4.778,4.778,0,0,0,7.094,9.1ZM26.164,23.871a4.778,4.778,0,1,0-4.8,4.73,4.765,4.765,0,0,0,4.8-4.73Zm-21.488-2.3a4.775,4.775,0,1,0,4.9-4.717A4.763,4.763,0,0,0,4.676,21.573ZM28.581,11.386a4.736,4.736,0,1,0-1.4,3.349A4.75,4.75,0,0,0,28.581,11.386Zm-12.05,7.329A2.111,2.111,0,1,0,14.4,16.59a2.139,2.139,0,0,0,2.127,2.124Z" transform="translate(0.011 0.001)" fill="#fff"/>
</svg>
