<svg xmlns="http://www.w3.org/2000/svg" width="33.27" height="47.355" viewBox="0 0 33.27 47.355">
  <path id="Path_19" data-name="Path 19" d="M33.256,28.132a1.633,1.633,0,0,0,.061-.435,1.51,1.51,0,0,0-.025-.265c0-.189.011-.376.011-.566a16.647,16.647,0,0,0-9.047-14.8V7.54a7.54,7.54,0,1,0-15.08,0v4.487a16.625,16.625,0,0,0,.112,29.735,2.993,2.993,0,1,0,4.264,1.44,16.667,16.667,0,0,0,6.333-.015,3,3,0,1,0,4.225-1.444,16.659,16.659,0,0,0,9.145-13.609Zm-26.725,7.5a13.552,13.552,0,0,1-1.124-1.507H27.949a13.553,13.553,0,0,1-1.13,1.507Zm22.929-4.728H3.883a13.2,13.2,0,0,1-.4-1.6H29.86a12.922,12.922,0,0,1-.4,1.6ZM12.389,7.54a4.32,4.32,0,1,1,8.639,0v3.275a16.621,16.621,0,0,0-8.639-.02Zm-3.22,8.216V18.65a3,3,0,1,0,3.22,0V14.157a13.414,13.414,0,0,1,8.639.025V18.65a3,3,0,1,0,3.22,0V15.807A13.413,13.413,0,0,1,30.06,26.081H3.284A13.411,13.411,0,0,1,9.169,15.756Zm1.5,23.1H22.678a13.4,13.4,0,0,1-12.013,0Z" transform="translate(-0.048)" fill="#fff"/>
</svg>
