<svg xmlns="http://www.w3.org/2000/svg" width="37" height="35.32" viewBox="0 0 37 35.32">
  <g id="Union_1" data-name="Union 1" fill="#fff">
    <path d="M 18.50038719177246 34.59814071655273 L 4.472020626068115 20.0063591003418 L 4.453170299530029 19.98674964904785 L 4.432300567626953 19.96929931640625 C 1.933270454406738 17.87986946105957 0.5000004172325134 14.76904964447021 0.5000004172325134 11.43449974060059 C 0.5000004172325134 8.509969711303711 1.593820452690125 5.761549472808838 3.579980373382568 3.695529460906982 C 5.560990333557129 1.634859561920166 8.193510055541992 0.4999995827674866 10.992600440979 0.4999995827674866 C 13.66009998321533 0.4999995827674866 16.20243072509766 1.544159531593323 18.15128135681152 3.440129518508911 L 18.49994087219238 3.779329538345337 L 18.84860038757324 3.440129518508911 C 20.79746055603027 1.544159531593323 23.33979988098145 0.4999995827674866 26.00730133056641 0.4999995827674866 C 28.8063907623291 0.4999995827674866 31.43890953063965 1.634859561920166 33.419921875 3.695529460906982 C 35.40608215332031 5.761549472808838 36.49990081787109 8.509969711303711 36.49990081787109 11.43449974060059 C 36.49990081787109 14.76944923400879 35.06644058227539 17.88041877746582 32.56708145141602 19.96973037719727 L 32.54618072509766 19.9871997833252 L 32.52730178833008 20.00683975219727 L 18.50038719177246 34.59814071655273 Z" stroke="none"/>
    <path d="M 18.50037384033203 33.87667846679688 L 32.2046012878418 19.62104988098145 L 32.24639892578125 19.58610916137695 C 34.63180160522461 17.59206962585449 35.99990081787109 14.6209192276001 35.99990081787109 11.43449974060059 C 35.99990081787109 5.680899620056152 31.51724052429199 0.9999995827674866 26.00730133056641 0.9999995827674866 C 23.47076988220215 0.9999995827674866 21.0522403717041 1.993869543075562 19.19725036621094 3.798519611358643 L 18.49994087219238 4.476909637451172 L 17.80261993408203 3.79850959777832 C 15.94764041900635 1.993859529495239 13.52912998199463 0.9999995827674866 10.992600440979 0.9999995827674866 C 5.482660293579102 0.9999995827674866 1.000000357627869 5.680899620056152 1.000000357627869 11.43449974060059 C 1.000000357627869 14.62053966522217 2.367920398712158 17.59153938293457 4.753020286560059 19.5857105255127 L 4.794760227203369 19.62060928344727 L 18.50037384033203 33.87667846679688 M 18.50040054321289 35.31959915161133 L 4.111580371856689 20.35289001464844 C 1.6047203540802 18.25691032409668 4.089355343239731e-07 15.04043960571289 4.089355343239731e-07 11.43449974060059 C 4.089355343239731e-07 5.119199752807617 4.921200275421143 -4.241943258875835e-07 10.992600440979 -4.241943258875835e-07 C 13.89527034759521 -4.241943258875835e-07 16.53516006469727 1.170279622077942 18.49994087219238 3.081749677658081 C 20.46473121643066 1.170279622077942 23.10462951660156 -4.241943258875835e-07 26.00730133056641 -4.241943258875835e-07 C 32.07870101928711 -4.241943258875835e-07 36.99990081787109 5.119199752807617 36.99990081787109 11.43449974060059 C 36.99990081787109 15.04081916809082 35.39508056640625 18.25738906860352 32.88776016235352 20.35334968566895 L 18.50040054321289 35.31959915161133 Z" stroke="none" fill="#712ba2"/>
  </g>
</svg>
